<svg height="494" width="800" xmlns="http://www.w3.org/2000/svg">
 <!-- Created with Image Occlusion Enhanced -->
 <g>
  <title>Labels</title>
 </g>
 <g>
  <title>Masks</title>
  <ellipse cx="90.24389" cy="54.17075" fill="#FFEBA2" id="7fc2988381354c77b326dba6496f2690-ao-1" rx="37.19512" ry="11.58537" stroke="#2D2D2D"/>
  <ellipse cx="223.17073" cy="88.92685" fill="#FFEBA2" id="7fc2988381354c77b326dba6496f2690-ao-2" rx="25" ry="9.7561" stroke="#2D2D2D"/>
  <ellipse cx="327.43902" cy="90.14636" fill="#FFEBA2" id="7fc2988381354c77b326dba6496f2690-ao-3" rx="38.41464" ry="10.36585" stroke="#2D2D2D"/>
  <ellipse cx="403.65854" cy="111.48782" fill="#FFEBA2" id="7fc2988381354c77b326dba6496f2690-ao-4" rx="29.26829" ry="10.97561" stroke="#2D2D2D"/>
  <ellipse cx="334.14634" cy="143.8049" fill="#FFEBA2" id="7fc2988381354c77b326dba6496f2690-ao-5" rx="36.58537" ry="14.02439" stroke="#2D2D2D"/>
  <ellipse cx="238.41463" cy="162.09758" fill="#FFEBA2" id="7fc2988381354c77b326dba6496f2690-ao-6" rx="28.04878" ry="9.14634" stroke="#2D2D2D"/>
  <ellipse cx="152.43902" cy="139.53661" fill="#FFEBA2" id="7fc2988381354c77b326dba6496f2690-ao-7" rx="19.5122" ry="10.97561" stroke="#2D2D2D"/>
  <ellipse cx="74.39023" cy="113.92685" fill="#FFEBA2" id="7fc2988381354c77b326dba6496f2690-ao-8" rx="26.21951" ry="13.41463" stroke="#2D2D2D"/>
  <ellipse cx="98.17072" cy="200.51222" fill="#FFEBA2" id="7fc2988381354c77b326dba6496f2690-ao-9" rx="29.26829" ry="11.58537" stroke="#2D2D2D"/>
  <ellipse cx="170.7317" cy="216.97563" fill="#FFEBA2" id="7fc2988381354c77b326dba6496f2690-ao-10" rx="18.29268" ry="7.92683" stroke="#2D2D2D"/>
  <ellipse cx="249.39024" cy="234.65856" fill="#FFEBA2" id="7fc2988381354c77b326dba6496f2690-ao-11" rx="32.92683" ry="10.97561" stroke="#2D2D2D"/>
  <ellipse cx="332.92683" cy="193.8049" fill="#FFEBA2" id="7fc2988381354c77b326dba6496f2690-ao-12" rx="31.09756" ry="10.36585" stroke="#2D2D2D"/>
  <ellipse cx="417.07317" cy="187.09758" fill="#FFEBA2" id="7fc2988381354c77b326dba6496f2690-ao-13" rx="20.73171" ry="7.31707" stroke="#2D2D2D"/>
  <ellipse cx="457.92683" cy="133.43905" fill="#FFEBA2" id="7fc2988381354c77b326dba6496f2690-ao-14" rx="30.48781" ry="10.97561" stroke="#2D2D2D"/>
  <ellipse cx="528.04878" cy="157.21953" fill="#FFEBA2" id="7fc2988381354c77b326dba6496f2690-ao-15" rx="31.09756" ry="10.36585" stroke="#2D2D2D"/>
  <ellipse cx="627.43903" cy="149.2927" fill="#FFEBA2" id="7fc2988381354c77b326dba6496f2690-ao-16" rx="42.68293" ry="12.19512" stroke="#2D2D2D"/>
  <ellipse cx="625.00001" cy="186.48783" fill="#FFEBA2" id="7fc2988381354c77b326dba6496f2690-ao-17" rx="39.02439" ry="11.58537" stroke="#2D2D2D"/>
  <ellipse cx="559.7561" cy="207.21954" fill="#FFEBA2" id="7fc2988381354c77b326dba6496f2690-ao-18" rx="20.73171" ry="7.92683" stroke="#2D2D2D"/>
  <ellipse class="qshape" cx="521.34147" cy="219.41466" fill="#FF7E7E" id="7fc2988381354c77b326dba6496f2690-ao-19" rx="20.12195" ry="7.92683" stroke="#2D2D2D"/>
  <ellipse cx="478.65854" cy="220.63417" fill="#FFEBA2" id="7fc2988381354c77b326dba6496f2690-ao-20" rx="17.68293" ry="7.92683" stroke="#2D2D2D"/>
  <ellipse cx="628.65854" cy="253.561" fill="#FFEBA2" id="7fc2988381354c77b326dba6496f2690-ao-21" rx="20.73171" ry="8.53659" stroke="#2D2D2D"/>
  <ellipse cx="535.36586" cy="265.14637" fill="#FFEBA2" id="7fc2988381354c77b326dba6496f2690-ao-22" rx="24.39024" ry="8.53659" stroke="#2D2D2D"/>
  <ellipse cx="432.31707" cy="249.90246" fill="#FFEBA2" id="7fc2988381354c77b326dba6496f2690-ao-23" rx="28.04878" ry="11.58537" stroke="#2D2D2D"/>
  <ellipse cx="351.21951" cy="251.12198" fill="#FFEBA2" id="7fc2988381354c77b326dba6496f2690-ao-24" rx="21.95122" ry="8.53659" stroke="#2D2D2D"/>
 </g>
</svg>